HIERARCHY
ROOT Hips
{
	OFFSET 0.000000 0.000000 0.000000
	CHANNELS 6 Xposition Yposition Zposition Xrotation Yrotation Zrotation
	JOINT LeftUpLeg_virtual
	{
		OFFSET 0.000000 0.000000 0.000000
		CHANNELS 3 Xrotation Yrotation Zrotation
		JOINT LeftUpLeg
		{
			OFFSET 11.394100 -6.187798 -0.413800
			CHANNELS 3 Xrotation Yrotation Zrotation
			JOINT LeftLeg
			{
				OFFSET 0.430247 -32.302673 3.732800
				CHANNELS 3 Xrotation Yrotation Zrotation
				JOINT LeftFoot
				{
					OFFSET -0.430247 -48.264931 -6.423300
					CHANNELS 3 Xrotation Yrotation Zrotation
					JOINT LeftToeBase
					{
						OFFSET 4.230900 -16.068199 23.438400
						CHANNELS 3 Xrotation Yrotation Zrotation
						JOINT LeftToe_End
						{
							OFFSET 4.510700 0.695400 19.974600
							CHANNELS 3 Xrotation Yrotation Zrotation
							End Site
							{
								OFFSET 0 0 0
							}
						}
					}
				}
			}
		}
	}
	JOINT RightUpLeg_virtual
	{
		OFFSET 0.000000 0.000000 0.000000
		CHANNELS 3 Xrotation Yrotation Zrotation
		JOINT RightUpLeg
		{
			OFFSET -11.333700 -6.187798 -0.413800
			CHANNELS 3 Xrotation Yrotation Zrotation
			JOINT RightLeg
			{
				OFFSET -0.430392 -32.302628 3.733000
				CHANNELS 3 Xrotation Yrotation Zrotation
				JOINT RightFoot
				{
					OFFSET 0.430392 -48.264973 -6.423500
					CHANNELS 3 Xrotation Yrotation Zrotation
					JOINT RightToeBase
					{
						OFFSET -4.230900 -16.068199 23.438400
						CHANNELS 3 Xrotation Yrotation Zrotation
						JOINT RightToe_End
						{
							OFFSET -4.510700 0.695400 19.974600
							CHANNELS 3 Xrotation Yrotation Zrotation
							End Site
							{
								OFFSET 0 0 0
							}
						}
					}
				}
			}
		}
	}
	JOINT Spine_virtual
	{
		OFFSET 0.000000 0.000000 0.000000
		CHANNELS 3 Xrotation Yrotation Zrotation
		JOINT Spine
		{
			OFFSET -0.002400 12.777504 0.315300
			CHANNELS 3 Xrotation Yrotation Zrotation
			JOINT Spine1
			{
				OFFSET -0.002067 5.816869 0.032633
				CHANNELS 3 Xrotation Yrotation Zrotation
				JOINT Spine1_split
				{
					OFFSET -0.002067 5.816869 0.032633
					CHANNELS 3 Xrotation Yrotation Zrotation
					JOINT Spine2
					{
						OFFSET -0.002067 5.816869 0.032633
						CHANNELS 3 Xrotation Yrotation Zrotation
						JOINT Neck_virtual
						{
							OFFSET 0.000000 0.000000 0.000000
							CHANNELS 3 Xrotation Yrotation Zrotation
							JOINT Neck
							{
								OFFSET -0.003700 21.199493 -0.826900
								CHANNELS 3 Xrotation Yrotation Zrotation
								JOINT Head
								{
									OFFSET 0.000000 20.442200 4.834800
									CHANNELS 3 Xrotation Yrotation Zrotation
									JOINT HeadTop_End
									{
										OFFSET 0.000000 34.668396 4.968400
										CHANNELS 3 Xrotation Yrotation Zrotation
										End Site
										{
											OFFSET 0 0 0
										}
									}
								}
							}
						}
						JOINT LeftShoulder_virtual
						{
							OFFSET 0.000000 0.000000 0.000000
							CHANNELS 3 Xrotation Yrotation Zrotation
							JOINT LeftShoulder
							{
								OFFSET 3.288150 8.794197 -1.372250
								CHANNELS 3 Xrotation Yrotation Zrotation
								JOINT LeftShoulder_split
								{
									OFFSET 3.288150 8.794197 -1.372250
									CHANNELS 3 Xrotation Yrotation Zrotation
									JOINT LeftArm
									{
										OFFSET 11.953299 -2.279007 -0.146200
										CHANNELS 3 Xrotation Yrotation Zrotation
										JOINT LeftForeArm
										{
											OFFSET 18.448900 0.000000 0.000000
											CHANNELS 3 Xrotation Yrotation Zrotation
											JOINT LeftHand
											{
												OFFSET 29.527798 0.000000 0.000000
												CHANNELS 3 Xrotation Yrotation Zrotation
												End Site
												{
													OFFSET 0 0 0
												}
											}
										}
									}
								}
							}
						}
						JOINT RightShoulder_virtual
						{
							OFFSET 0.000000 0.000000 0.000000
							CHANNELS 3 Xrotation Yrotation Zrotation
							JOINT RightShoulder
							{
								OFFSET -3.249400 8.794197 -1.372250
								CHANNELS 3 Xrotation Yrotation Zrotation
								JOINT RightShoulder_split
								{
									OFFSET -3.249400 8.794197 -1.372250
									CHANNELS 3 Xrotation Yrotation Zrotation
									JOINT RightArm
									{
										OFFSET -11.953299 -2.279007 -0.146200
										CHANNELS 3 Xrotation Yrotation Zrotation
										JOINT RightForeArm
										{
											OFFSET -18.448900 0.000000 0.000000
											CHANNELS 3 Xrotation Yrotation Zrotation
											JOINT RightHand
											{
												OFFSET -29.527802 0.000000 0.000000
												CHANNELS 3 Xrotation Yrotation Zrotation
												End Site
												{
													OFFSET 0 0 0
												}
											}
										}
									}
								}
							}
						}
					}
				}
			}
		}
	}
}
MOTION
Frames: 6
Frame Time: 0.03333333
6.752119 100.852928 -0.752995 0.000000 0.000000 0.000000 -4.157939 3.810989 10.884907 -37.556615 11.514628 1.012443 23.316464 5.653906 7.912964 29.105123 0.138878 -6.846651 -6.545062 1.422645 9.889268 0.000000 0.000000 0.000000 -5.522412 5.232841 11.081862 -10.158743 -4.208371 6.767867 27.284956 -12.517731 -1.658571 -24.102122 -16.675763 -6.473876 -6.442606 2.928536 -10.925822 0.000000 0.000000 0.000000 -6.334676 4.695036 10.018593 5.318162 1.628833 -3.121547 0.194803 3.317762 -6.168315 0.010802 -0.803888 0.076968 0.000000 0.000000 0.000000 1.837087 6.057355 -6.837183 -5.853042 5.882575 18.707338 7.140498 21.658779 3.177910 0.000000 0.000000 0.000000 0.202506 4.022540 -7.243949 1.681006 4.005652 2.624152 -6.528214 1.334683 -2.867355 -19.339998 -2.779380 -30.897375 0.056771 -15.198617 -0.797647 0.000000 0.000000 0.000000 1.965174 4.510751 -6.649397 4.170622 -7.258072 4.014176 -9.161716 0.448388 -2.573074 -49.053244 20.230336 6.653066 -6.410539 22.988547 7.762108 0.000000 0.000000 0.000000 
5.926713 100.628670 -0.515175 0.000000 0.000000 0.000000 -4.376326 3.109559 11.064169 -39.604090 12.094805 -0.398559 21.613485 6.729715 8.100098 29.809357 0.284937 -6.554609 -6.666607 1.024240 10.820405 0.000000 0.000000 0.000000 -5.115306 3.955114 11.182588 -9.655738 -6.196966 6.700589 29.750395 -12.469001 -1.068276 -23.792226 -15.915859 -7.002278 -8.735849 3.254946 -10.128201 0.000000 0.000000 0.000000 -6.273240 4.348866 9.995271 5.650943 1.645618 -3.470479 0.165990 3.392496 -6.120833 0.103621 -0.804271 0.106818 0.000000 0.000000 0.000000 1.851794 6.157492 -6.887135 -6.063471 5.761971 18.601387 7.374682 22.084201 3.081735 0.000000 0.000000 0.000000 0.116508 4.159560 -7.064130 1.595452 4.401423 4.141667 -6.459092 0.266837 -1.227405 -22.292438 -2.158775 -28.981247 -0.577323 -16.096452 -0.947798 0.000000 0.000000 0.000000 1.900171 4.566782 -6.645106 3.968155 -6.720211 3.731475 -8.854296 1.526363 -3.039425 -50.333430 23.703757 8.016310 -6.135415 24.312238 7.246332 0.000000 0.000000 0.000000 
4.755057 100.440598 0.026360 0.000000 0.000000 0.000000 -4.216556 0.422878 11.206641 -41.142741 12.955315 -2.922944 19.803999 8.770185 8.335008 30.996150 1.842651 -6.417179 -6.816805 0.552107 11.768559 0.000000 0.000000 0.000000 -4.412534 0.869487 11.370042 -8.613108 -8.032360 6.385774 32.481470 -12.121802 -0.534547 -23.684123 -14.034737 -7.496356 -11.831137 3.413296 -8.431876 0.000000 0.000000 0.000000 -6.034620 2.396910 9.964758 5.761654 1.841570 -4.028248 0.143456 3.552081 -5.963796 0.152478 -0.867301 0.130767 0.000000 0.000000 0.000000 1.874550 6.285875 -6.734535 -6.101370 5.760974 18.073657 8.158546 22.240327 2.485077 0.000000 0.000000 0.000000 0.034772 4.347917 -6.714425 1.471496 5.178263 6.146534 -5.798997 -0.227213 -0.473914 -24.115912 -1.964751 -25.169420 -0.147941 -16.684694 -0.512418 0.000000 0.000000 0.000000 1.774048 4.660309 -6.475451 3.799972 -6.022743 3.016715 -7.821060 1.293674 -2.735135 -52.982836 28.852433 10.150019 -5.030621 24.360317 5.880679 0.000000 0.000000 0.000000 
3.308290 100.264664 0.709766 0.000000 0.000000 0.000000 -3.688706 -3.465156 11.305231 -41.689914 13.881922 -6.157187 18.410490 11.683263 8.631056 32.064299 4.764311 -6.363791 -5.890852 0.316060 11.872502 0.000000 0.000000 0.000000 -3.495436 -3.652921 11.554549 -7.335971 -9.458586 5.867540 34.099999 -11.445127 -0.349603 -24.242688 -11.188062 -8.057866 -13.975261 3.447330 -6.633113 0.000000 0.000000 0.000000 -5.448459 -0.777518 9.831601 5.582635 2.154211 -4.639714 0.112493 3.760815 -5.712146 0.082382 -0.879556 0.121584 0.000000 0.000000 0.000000 1.817646 6.399623 -6.381682 -5.859758 5.884458 17.184631 9.532204 22.088185 1.459463 0.000000 0.000000 0.000000 -0.057431 4.538522 -6.284994 1.314382 6.375975 8.194778 -4.608900 0.032525 -0.580160 -24.457755 -1.950444 -20.500511 1.052881 -15.851269 0.396671 0.000000 0.000000 0.000000 1.648589 4.783740 -6.192063 3.688972 -5.268643 1.971842 -6.567670 0.108374 -2.140714 -56.738272 34.147387 12.543220 -3.417136 23.007492 4.010065 0.000000 0.000000 0.000000 
1.698853 100.184280 1.613678 0.000000 0.000000 0.000000 -2.896540 -7.842173 11.266079 -41.544117 14.515825 -9.568723 17.659847 15.077113 8.868240 32.757075 8.437680 -6.174410 -3.930260 0.318452 10.853788 0.000000 0.000000 0.000000 -2.396077 -8.845154 11.627018 -6.048772 -10.560030 5.272090 34.499183 -10.281623 -0.541615 -24.341112 -7.729947 -7.610259 -14.873131 3.675430 -5.671202 0.000000 0.000000 0.000000 -4.439634 -4.607873 9.639998 5.058459 2.463530 -5.187038 0.032931 3.957342 -5.385716 0.021947 -0.820202 0.057303 0.000000 0.000000 0.000000 1.701065 6.468559 -5.895248 -5.225453 6.150255 16.011679 11.172058 21.735361 0.131762 0.000000 0.000000 0.000000 -0.170494 4.716261 -5.860113 1.112469 7.977833 9.953916 -3.078856 0.801632 -0.368111 -23.643577 -2.013175 -15.777701 2.460382 -13.499649 1.487273 0.000000 0.000000 0.000000 1.565679 4.886199 -5.866355 3.663726 -4.410021 0.816239 -5.974740 -1.036601 -1.498475 -61.112749 38.480937 14.850054 -1.741190 20.723771 2.135242 0.000000 0.000000 0.000000 
-0.030915 100.102516 2.602612 0.000000 0.000000 0.000000 -2.162595 -11.914420 10.925942 -40.936466 14.427561 -12.469881 18.012570 17.734050 8.818553 33.264903 11.625150 -6.110303 -2.901138 0.263682 9.424310 0.000000 0.000000 0.000000 -1.559851 -13.492328 11.426961 -5.069573 -11.562662 4.790480 34.292027 -8.516571 -0.889666 -22.595965 -4.207779 -5.200943 -15.263837 4.312578 -6.229199 0.000000 0.000000 0.000000 -3.252153 -8.442056 9.327339 4.244939 2.702863 -5.579087 -0.128036 4.114228 -5.049639 0.085068 -0.659646 0.006266 0.000000 0.000000 0.000000 1.548616 6.497995 -5.386179 -4.165666 6.541078 14.613603 12.787321 21.277680 -1.323346 0.000000 0.000000 0.000000 -0.305464 4.874061 -5.524788 0.888129 9.814996 11.160028 -2.080453 1.530116 -0.037429 -22.439333 -1.762776 -11.431632 3.486543 -10.320708 2.452839 0.000000 0.000000 0.000000 1.561967 4.989465 -5.591359 3.696696 -3.434916 -0.294697 -5.659469 -1.423315 -1.076308 -65.398870 41.288384 16.670964 -0.353547 18.413722 0.697766 0.000000 0.000000 0.000000 
